<svg xmlns="http://www.w3.org/2000/svg" version="1.1" xmlns:xlink="http://www.w3.org/1999/xlink" width="800px" height="800px"><svg height="800px" width="800px" version="1.1" id="SvgjsSvg1001" xmlns="http://www.w3.org/2000/svg" xmlns:xlink="http://www.w3.org/1999/xlink" viewBox="0 0 512 512" xml:space="preserve">
<circle style="fill:#273B7A;" cx="256" cy="256" r="256"></circle>
<path style="fill:#121149;" d="M306.224,507.061c101.14-20.121,180.8-99.819,200.864-200.98L359.91,158.903l-57.939,78.134
	l22.862,22.862L150.18,351.017L306.224,507.061z"></path>
<circle style="fill:#FFFFFF;" cx="256" cy="256" r="142.222"></circle>
<path style="fill:#D0D1D3;" d="M398.222,256c0,78.546-63.676,142.222-142.222,142.222S113.778,334.546,113.778,256H398.222z"></path>
<path style="fill:#FFC61B;" d="M170.667,256c0-68.805,48.862-126.193,113.778-139.373c-9.192-1.865-18.703-2.85-28.444-2.85
	c-78.548,0-142.222,63.676-142.222,142.222S177.454,398.222,256,398.222c9.742,0,19.253-0.984,28.444-2.85
	C219.527,382.193,170.667,324.805,170.667,256z"></path>
<g>
	<path style="fill:#EAA22F;" d="M170.667,256h-56.889c0,78.546,63.676,142.222,142.222,142.222c9.742,0,19.253-0.984,28.444-2.85
		C219.527,382.193,170.667,324.805,170.667,256z"></path>
	
		<ellipse transform="matrix(-0.9714 -0.2374 0.2374 -0.9714 213.9031 499.8542)" style="fill:#EAA22F;" cx="137.048" cy="237.048" rx="9.481" ry="12.067"></ellipse>
</g>
<ellipse style="fill:#FF5419;" cx="205.145" cy="376.208" rx="6.039" ry="6.434"></ellipse>
<ellipse style="fill:#EAA22F;" cx="164.633" cy="192.681" rx="6.039" ry="6.434"></ellipse>
<g>
	<ellipse style="fill:#FF5419;" cx="176.7" cy="347.763" rx="6.039" ry="6.434"></ellipse>
	<ellipse style="fill:#FF5419;" cx="150.187" cy="292.926" rx="7.958" ry="8.48"></ellipse>
</g>
</svg><style>@media (prefers-color-scheme: light) { :root { filter: none; } }
@media (prefers-color-scheme: dark) { :root { filter: none; } }
</style></svg>